:SAMPLES-PER-SECOND 30
:FULLY-SPECIFIED
:DEGREES
85
root  5.21937 51.0566 -6.37053 55.1896 -72.3543 -65.519
RightUpLeg  -97.9242 -17.3214 16.0547
RightLeg  120.672 10.2224 -14.8693
RightFoot  -1.46049 -0.040257 0.365227
RightToes  0.000482159 0.542163 -0.142577
Spine  56.6096 -4.12 15.7465
Spine1  10.4369 1.26321 11.3072
HEad  -32.685 8.4745 -19.5486
LeftShoulder1  2.81665 -4.95163 -27.0546
LeftArm  -10.2903 43.4049 -20.8816
LeftForeArm  28.1433 -14.5794 -3.09087
LeftHand  -0.25398 0.0180481 5.50724
RightShoulder  4.09361 8.91489 26.8989
RightArm  28.2593 -30.799 6.66658
RightForeArm  -6.15711 36.9875 8.81804
RightHand  -2.93602 7.5202 -26.373
LeftUpLeg  -54.8376 29.8687 -1.76334
LeftLeg  28.2816 -0.695962 -0.0838376
LeftFoot  22.7645 2.15448 -7.48109
LeftToes  1.06247e-005 4.65854e-005 -8.18502e-006
86
root  2.62843 48.718 -6.16084 58.4825 -71.5284 -70.6529
RightUpLeg  -96.2343 -17.0084 14.2641
RightLeg  110.239 8.41514 -18.6571
RightFoot  -3.61529 0.103183 -1.80172
RightToes  0.000482159 0.542163 -0.142577
Spine  53.5641 -3.18699 18.757
Spine1  9.39261 2.2614 13.0466
HEad  -26.5519 7.94171 -18.341
LeftShoulder1  1.67483 -2.47951 -21.5384
LeftArm  -10.0227 55.5797 -20.9372
LeftForeArm  25.1355 -12.9824 -2.51005
LeftHand  -0.25398 0.0180481 5.50724
RightShoulder  3.25818 6.74761 25.6768
RightArm  23.3316 -43.4935 10.7081
RightForeArm  -3.3287 40.2779 9.68747
RightHand  -2.81585 7.08906 -26.1479
LeftUpLeg  -42.1984 28.9557 6.11359
LeftLeg  26.516 0.99311 0.870354
LeftFoot  26.1529 3.0508 -9.42969
LeftToes  1.06247e-005 4.65854e-005 -8.18502e-006
87
root  0.0878557 46.0156 -5.82538 62.7709 -71.4555 -77.8229
RightUpLeg  -90.605 -16.2799 12.6111
RightLeg  98.4082 3.69102 -17.414
RightFoot  -4.30169 -0.0398064 0.164511
RightToes  0.000482159 0.542163 -0.142577
Spine  50.7432 -3.75558 22.3828
Spine1  8.93023 3.35335 10.7552
HEad  -18.3221 7.84824 -15.8606
LeftShoulder1  0.991447 -0.694932 -16.7674
LeftArm  -6.11168 61.5936 -17.4094
LeftForeArm  23.0855 -11.1529 -2.50964
LeftHand  -0.25398 0.0180481 5.50724
RightShoulder  2.69133 5.31912 24.3745
RightArm  16.2651 -55.0702 18.5142
RightForeArm  -2.03271 40.0982 9.56335
RightHand  -2.50223 6.2716 -24.93
LeftUpLeg  -27.7636 26.4956 13.3671
LeftLeg  25.7808 1.37362 1.06679
LeftFoot  30.1441 3.9106 -10.9032
LeftToes  1.06247e-005 4.65854e-005 -8.18502e-006
88
root  -2.62069 43.1725 -5.60835 67.3095 -73.8415 -83.8962
RightUpLeg  -84.4833 -14.7269 10.2823
RightLeg  87.0559 0.0143781 -14.8886
RightFoot  -4.84159 -0.205693 3.04127
RightToes  0.000482159 0.542163 -0.142577
Spine  47.4888 -3.79839 22.0437
Spine1  8.95948 3.76252 6.20072
HEad  -11.7717 9.1346 -13.4518
LeftShoulder1  0.504216 1.28726 -16.3464
LeftArm  -5.39994 62.6669 -16.108
LeftForeArm  20.693 -10.7147 -2.37026
LeftHand  -0.25398 0.0180481 5.50724
RightShoulder  2.63343 5.02464 24.7475
RightArm  9.67065 -61.7666 27.2105
RightForeArm  -3.01206 35.976 8.33489
RightHand  -2.45091 6.14703 -24.683
LeftUpLeg  -14.358 21.3071 15.2871
LeftLeg  24.3663 -1.91637 -0.667499
LeftFoot  25.2423 2.85067 -8.84106
LeftToes  1.06247e-005 4.65854e-005 -8.18502e-006
89
root  -5.51563 40.5532 -5.70644 59.6019 -78.8907 -77.2874
RightUpLeg  -77.6696 -14.2976 5.35696
RightLeg  78.2005 -2.24124 -14.1448
RightFoot  -6.1157 -0.184534 3.13352
RightToes  0.000482159 0.542163 -0.142577
Spine  46.3293 -3.23002 16.0547
Spine1  7.51679 2.77599 2.1884
HEad  -11.1533 11.1317 -11.6556
LeftShoulder1  0.581672 1.54928 -22.0743
LeftArm  -8.9803 59.9223 -18.2455
LeftForeArm  15.8288 -11.0151 -1.94979
LeftHand  -0.25398 0.0180481 5.50724
RightShoulder  2.92162 5.33338 27.0052
RightArm  5.44876 -63.2969 33.7126
RightForeArm  -6.53534 30.1159 6.88214
RightHand  -2.60378 6.74797 -24.9288
LeftUpLeg  -4.75049 10.1604 9.57355
LeftLeg  26.0847 -0.432281 0.230092
LeftFoot  6.22115 0.345804 -1.81043
LeftToes  1.06247e-005 4.65854e-005 -8.18502e-006
90
root  -8.40219 38.2749 -6.09949 20.8109 -83.7917 -37.617
RightUpLeg  -71.1821 -14.5131 -1.90968
RightLeg  71.5744 -3.88071 -13.8121
RightFoot  -5.62352 -0.181328 2.80953
RightToes  0.000482159 0.542163 -0.142577
Spine  44.8622 -1.87828 7.48311
Spine1  5.94552 1.24136 -1.18809
HEad  -15.8342 11.2724 -9.16019
LeftShoulder1  2.23163 -2.18872 -32.2022
LeftArm  -12.4244 51.0107 -19.6973
LeftForeArm  11.4824 -11.066 -2.09319
LeftHand  -0.25398 0.0180481 5.50724
RightShoulder  3.57319 6.17505 30.9225
RightArm  0.204864 -59.9348 38.8959
RightForeArm  -9.44754 23.803 5.80379
RightHand  -2.63613 7.17667 -24.4109
LeftUpLeg  -3.69686 0.319757 -1.66574
LeftLeg  35.2622 7.28371 5.96329
LeftFoot  -14.3752 0.113998 4.567
LeftToes  1.06247e-005 4.65854e-005 -8.18502e-006
91
root  -11.054 36.6827 -6.43401 -28.4905 -82.6 13.2538
RightUpLeg  -60.9583 -14.9691 -6.52416
RightLeg  63.6114 -5.06517 -11.6537
RightFoot  -1.78471 -0.453937 5.0976
RightToes  0.000482159 0.542163 -0.142577
Spine  42.7721 -1.49971 3.47091
Spine1  5.80094 0.948128 -5.18012
HEad  -20.0088 8.98439 -5.87415
LeftShoulder1  5.40067 -7.64415 -42.1326
LeftArm  -11.8564 36.0569 -17.8242
LeftForeArm  13.7194 -13.3544 -3.18152
LeftHand  -0.25398 0.0180481 5.50724
RightShoulder  4.50776 7.47681 35.0918
RightArm  -5.27828 -51.5207 40.0932
RightForeArm  -6.1528 17.7055 5.96612
RightHand  -2.74501 7.73411 -24.3269
LeftUpLeg  -6.38162 -1.7232 -8.21634
LeftLeg  47.2556 9.75678 11.3901
LeftFoot  -25.395 0.686396 4.48656
LeftToes  1.06247e-005 4.65854e-005 -8.18502e-006
92
root  -13.818 35.7189 -6.52884 -38.133 -81.2905 25.2664
RightUpLeg  -49.1045 -15.2982 -6.65821
RightLeg  54.4257 -5.68401 -8.84966
RightFoot  2.96218 -0.798567 6.69041
RightToes  0.000482159 0.542163 -0.142577
Spine  38.9116 -1.62152 4.3785
Spine1  5.54438 1.94195 -8.77823
HEad  -19.7038 6.55705 -3.95691
LeftShoulder1  7.81939 -10.7821 -47.8955
LeftArm  -9.37352 21.3041 -18.6227
LeftForeArm  24.269 -22.3309 -4.04783
LeftHand  -0.25398 0.0180481 5.50724
RightShoulder  5.27085 8.65289 37.3564
RightArm  -4.31117 -40.4825 35.003
RightForeArm  -1.55901 14.9218 6.46119
RightHand  -3.19985 8.90266 -25.9965
LeftUpLeg  -7.23811 0.318759 -9.27637
LeftLeg  53.9467 8.0149 12.0969
LeftFoot  -30.8957 0.326541 0.906945
LeftToes  1.06247e-005 4.65854e-005 -8.18502e-006
93
root  -16.7046 35.0683 -6.51307 -43.377 -81.8766 33.768
RightUpLeg  -41.6806 -15.2706 -4.74802
RightLeg  49.2289 -6.44046 -8.26769
RightFoot  3.38156 -0.354615 2.69562
RightToes  0.000482159 0.542163 -0.142577
Spine  34.5137 -1.14928 6.1857
Spine1  3.33273 2.97106 -10.3519
HEad  -16.9737 5.4904 -4.32249
LeftShoulder1  8.40726 -11.5401 -48.7897
LeftArm  -9.71189 12.2732 -24.8471
LeftForeArm  40.5565 -38.0789 -6.37862
LeftHand  -0.25398 0.0180481 5.50724
RightShoulder  5.64951 9.42003 37.6864
RightArm  0.828603 -29.7668 27.256
RightForeArm  -3.67175 18.4388 5.91046
RightHand  -3.26672 8.70019 -26.8524
LeftUpLeg  -6.33368 2.86469 -8.32225
LeftLeg  56.5036 5.58364 9.5439
LeftFoot  -34.9976 -0.655775 -4.17708
LeftToes  1.06247e-005 4.65854e-005 -8.18502e-006
94
root  -19.199 34.7439 -6.54295 -48.2964 -82.9931 40.7985
RightUpLeg  -39.6874 -14.6938 -2.88886
RightLeg  51.3339 -7.66685 -10.5534
RightFoot  -1.8661 0.293457 -3.79707
RightToes  0.000482159 0.542163 -0.142577
Spine  33.3923 -0.77944 7.75327
Spine1  0.346626 3.30808 -9.89644
HEad  -16.3892 5.52489 -5.67764
LeftShoulder1  8.22056 -11.7753 -46.9446
LeftArm  -9.62641 6.91497 -31.5656
LeftForeArm  52.7716 -53.7318 -11.0653
LeftHand  -0.25398 0.0180481 5.50724
RightShoulder  5.92902 10.2214 37.1827
RightArm  -1.7409 -18.7439 20.9967
RightForeArm  -6.25682 24.9328 5.50334
RightHand  -2.8239 7.31258 -25.8053
LeftUpLeg  -7.08211 4.82413 -6.42992
LeftLeg  61.8082 3.2005 7.06867
LeftFoot  -30.8796 -1.2809 -8.76263
LeftToes  1.06247e-005 4.65854e-005 -8.18502e-006
